<svg width="524" height="74" viewBox="0 0 524 74" fill="none" xmlns="http://www.w3.org/2000/svg">
<path d="M69.8441 31.4076L39.7678 1.33133C37.9927 -0.443776 35.085 -0.443776 33.3098 1.33133L3.23051 31.4076C1.4554 33.1827 0 36.6934 0 39.2053V66.6083C0 69.1202 2.05522 71.1754 4.56716 71.1754H32.6613L20.2904 58.8045C19.654 59.0237 18.975 59.1486 18.2687 59.1486C14.8281 59.1486 12.0269 56.3474 12.0269 52.9068C12.0269 49.4662 14.8281 46.665 18.2687 46.665C21.7092 46.665 24.5104 49.4662 24.5104 52.9068C24.5104 53.6162 24.3856 54.2952 24.1664 54.9316L33.797 64.5622V29.2793C31.7266 28.2624 30.2955 26.1371 30.2955 23.68C30.2955 20.2394 33.0967 17.4382 36.5373 17.4382C39.9779 17.4382 42.7791 20.2394 42.7791 23.68C42.7791 26.1371 41.3481 28.2624 39.2776 29.2793V54.0242L48.8565 44.4453C48.6677 43.8486 48.5642 43.2153 48.5642 42.5576C48.5642 39.117 51.3654 36.3158 54.806 36.3158C58.2466 36.3158 61.0478 39.117 61.0478 42.5576C61.0478 45.9982 58.2466 48.7994 54.806 48.7994C54.0448 48.7994 53.3201 48.6563 52.6472 48.4066L39.2776 61.7762V71.1785H68.5075C71.0194 71.1785 73.0746 69.1232 73.0746 66.6113V39.2083C73.0746 36.6964 71.6223 33.1888 69.8441 31.4107V31.4076Z" fill="#1D2126"/>
<path d="M102.316 14.1752H109.855V32.7484L129.452 32.8093V14.1752H137.063V58.629H129.452V39.5139L109.855 39.453V58.635H102.304L102.316 14.1752Z" fill="#1D2126"/>
<path d="M159.181 27.7638C163.778 27.7638 167.524 29.2406 170.419 32.194C173.313 35.1474 174.761 38.9443 174.761 43.5845C174.761 48.2024 173.313 51.9881 170.419 54.9415C167.524 57.8949 163.778 59.3716 159.181 59.3716C154.54 59.3716 150.774 57.8949 147.881 54.9415C144.989 51.9881 143.542 48.2024 143.54 43.5845C143.54 38.9158 144.987 35.1149 147.881 32.1818C150.776 29.2487 154.542 27.776 159.181 27.7638ZM159.181 52.8893C161.639 52.8893 163.636 52.0226 165.173 50.2891C166.709 48.5556 167.477 46.3004 167.475 43.5236C167.475 40.7508 166.707 38.5058 165.173 36.7886C163.638 35.0713 161.641 34.2147 159.181 34.2188C156.664 34.2188 154.634 35.0754 153.091 36.7886C151.548 38.5017 150.775 40.7468 150.771 43.5236C150.771 46.3004 151.544 48.5556 153.091 50.2891C154.638 52.0226 156.668 52.8893 159.181 52.8893Z" fill="#1D2126"/>
<path d="M226.129 39.5137V58.6318H219.126V40.6098C219.126 38.5312 218.592 36.9074 217.522 35.7382C216.452 34.569 214.995 33.9834 213.149 33.9813C211.189 33.9813 209.623 34.6207 208.451 35.8995C207.28 37.1783 206.696 38.9676 206.698 41.2675V58.6227H199.637V40.6098C199.637 38.5312 199.116 36.9074 198.075 35.7382C197.033 34.569 195.591 33.9834 193.748 33.9813C191.787 33.9813 190.212 34.6207 189.023 35.8995C187.833 37.1783 187.238 38.9676 187.238 41.2675V58.6227H180.044V28.5982H186.742L186.98 31.4816C188.725 28.9239 191.567 27.6451 195.505 27.6451C197.805 27.6451 199.797 28.1211 201.482 29.0731C203.165 30.0238 204.506 31.48 205.315 33.2354C206.042 31.4995 207.328 30.0561 208.969 29.134C210.662 28.1414 212.679 27.6451 215.019 27.6451C218.429 27.6451 221.135 28.6956 223.136 30.7965C225.138 32.8974 226.135 35.8031 226.129 39.5137Z" fill="#1D2126"/>
<path d="M261.022 46.2607H238.01C238.247 48.5199 239.1 50.2453 240.568 51.4368C242.035 52.6284 243.898 53.2211 246.158 53.215C249.824 53.215 252.39 51.6926 253.858 48.6478L259.865 51.0258C258.787 53.6008 256.918 55.7663 254.528 57.2097C252.092 58.6996 249.302 59.4436 246.158 59.4416C241.716 59.4416 238.113 57.9892 235.349 55.0845C232.584 52.1798 231.201 48.3687 231.199 43.6513C231.199 38.934 232.592 35.0986 235.379 32.1451C238.166 29.1917 241.808 27.715 246.304 27.715C250.725 27.715 254.283 29.1714 256.979 32.0842C259.675 34.9971 261.022 38.8335 261.022 43.5935V46.2607ZM238.129 41.2033H253.709C253.569 38.7675 252.831 36.9092 251.495 35.6284C250.16 34.3475 248.36 33.7142 246.097 33.7284C243.864 33.7284 242.037 34.377 240.616 35.674C239.195 36.9711 238.366 38.8142 238.129 41.2033Z" fill="#1D2126"/>
<path d="M307.379 48.2826H290.462L286.808 58.6348H279.017L295.072 14.1811H302.863L318.949 58.6348H310.981L307.379 48.2826ZM305.181 41.8885L298.966 24.1071L292.691 41.8885H305.181Z" fill="#1D2126"/>
<path d="M333.056 53.6325C334.542 53.6325 335.716 53.3402 336.579 52.7556C337.002 52.4721 337.344 52.0831 337.571 51.6271C337.798 51.1711 337.902 50.6639 337.873 50.1553C337.873 48.5518 336.793 47.481 334.633 46.9431L330.498 45.8439C324.815 44.2972 321.973 41.3732 321.973 37.0719C321.973 34.3174 322.974 32.0673 324.975 30.3217C326.976 28.576 329.672 27.7042 333.062 27.7062C336.095 27.7062 338.632 28.3994 340.674 29.7858C341.66 30.4275 342.502 31.2658 343.149 32.2481C343.796 33.2304 344.234 34.3357 344.434 35.4947L337.982 37.0171C337.928 36.5048 337.767 36.0096 337.508 35.5641C337.25 35.1186 336.9 34.7328 336.481 34.4321C335.547 33.7754 334.425 33.4409 333.284 33.4791C331.995 33.4791 330.955 33.8018 330.163 34.4473C329.782 34.7435 329.475 35.1251 329.269 35.5614C329.062 35.9978 328.961 36.4766 328.973 36.9593C328.964 37.35 329.04 37.7379 329.194 38.0971C329.347 38.4563 329.576 38.7784 329.865 39.0419C330.462 39.5961 331.383 40.0416 332.63 40.3786L336.703 41.3894C339.419 42.1242 341.491 43.2346 342.918 44.7204C343.62 45.4497 344.17 46.3115 344.536 47.2556C344.902 48.1997 345.077 49.2071 345.049 50.2193C345.049 53.0367 343.989 55.2766 341.867 56.9391C339.746 58.6015 336.822 59.4348 333.095 59.4389C329.645 59.4389 326.879 58.6807 324.798 57.1644C323.792 56.4516 322.945 55.5378 322.31 54.4807C321.676 53.4235 321.267 52.2462 321.111 51.0231L327.682 49.863C327.721 50.4163 327.885 50.9535 328.161 51.4348C328.436 51.9161 328.817 52.329 329.274 52.6429C330.236 53.3036 331.491 53.6325 333.056 53.6325Z" fill="#1D2126"/>
<path d="M360.337 53.6325C361.826 53.6325 362.998 53.328 363.863 52.7556C364.285 52.4713 364.626 52.0821 364.852 51.6262C365.079 51.1704 365.182 50.6635 365.154 50.1553C365.154 48.5518 364.074 47.481 361.914 46.9431L357.782 45.8439C352.099 44.2972 349.257 41.3732 349.257 37.0719C349.257 34.3174 350.258 32.0673 352.259 30.3217C354.261 28.576 356.956 27.7042 360.346 27.7062C363.379 27.7062 365.916 28.3994 367.958 29.7858C368.944 30.4279 369.787 31.2662 370.434 32.2484C371.082 33.2306 371.52 34.3357 371.721 35.4947L365.266 37.0171C365.213 36.5048 365.051 36.0096 364.792 35.5641C364.534 35.1186 364.184 34.7328 363.765 34.4321C362.832 33.7754 361.709 33.4409 360.568 33.4791C359.279 33.4791 358.239 33.8018 357.447 34.4473C357.066 34.7438 356.76 35.1255 356.553 35.5617C356.347 35.998 356.245 36.4767 356.257 36.9593C356.248 37.35 356.324 37.7379 356.478 38.0971C356.631 38.4563 356.86 38.7784 357.149 39.0419C357.758 39.5961 358.671 40.0406 359.917 40.3786L363.991 41.3894C366.702 42.1242 368.774 43.2346 370.205 44.7204C370.907 45.4501 371.457 46.312 371.822 47.256C372.188 48.1999 372.363 49.2072 372.336 50.2193C372.336 53.0367 371.276 55.2766 369.155 56.9391C367.033 58.6015 364.109 59.4348 360.383 59.4389C356.932 59.4389 354.166 58.6807 352.086 57.1644C351.079 56.4516 350.232 55.5378 349.597 54.4807C348.963 53.4235 348.554 52.2462 348.398 51.0231L354.972 49.863C355.011 50.4161 355.174 50.9532 355.449 51.4345C355.724 51.9158 356.104 52.3289 356.561 52.6429C357.517 53.3036 358.772 53.6325 360.337 53.6325Z" fill="#1D2126"/>
<path d="M376.916 18.2002C376.905 17.5991 377.015 17.0019 377.24 16.4442C377.464 15.8864 377.799 15.3795 378.223 14.9535C378.647 14.5275 379.153 14.1911 379.71 13.9643C380.267 13.7375 380.863 13.6248 381.464 13.6331C382.061 13.6239 382.652 13.7379 383.202 13.9679C383.752 14.1979 384.249 14.5389 384.661 14.9697C385.511 15.8253 385.988 16.9822 385.988 18.1881C385.988 19.3939 385.511 20.5508 384.661 21.4064C384.252 21.8418 383.756 22.1872 383.206 22.4204C382.655 22.6537 382.062 22.7698 381.464 22.7613C380.865 22.7691 380.269 22.6528 379.717 22.4197C379.164 22.1865 378.665 21.8415 378.252 21.4064C377.825 20.9898 377.486 20.491 377.256 19.94C377.026 19.389 376.91 18.7972 376.916 18.2002ZM385.063 28.6073V58.6379H377.865V28.5981L385.063 28.6073Z" fill="#1D2126"/>
<path d="M402.473 53.6325C403.959 53.6325 405.133 53.3402 405.996 52.7556C406.419 52.4716 406.76 52.0826 406.987 51.6267C407.214 51.1708 407.318 50.6638 407.29 50.1553C407.29 48.5518 406.209 47.481 404.047 46.9431L399.916 45.8439C394.232 44.2972 391.39 41.3732 391.39 37.0719C391.39 34.3174 392.391 32.0673 394.392 30.3217C396.394 28.576 399.09 27.7042 402.482 27.7062C405.515 27.7062 408.052 28.3994 410.094 29.7858C411.079 30.4285 411.921 31.267 412.568 32.2491C413.215 33.2313 413.653 34.3361 413.855 35.4947L407.403 37.0171C407.349 36.5048 407.187 36.0096 406.929 35.5641C406.67 35.1186 406.32 34.7328 405.902 34.4321C404.968 33.7763 403.845 33.4418 402.705 33.4791C401.416 33.4791 400.374 33.8018 399.581 34.4473C399.2 34.7441 398.895 35.1259 398.688 35.5622C398.482 35.9984 398.381 36.4769 398.393 36.9593C398.385 37.35 398.46 37.7379 398.614 38.0971C398.768 38.4563 398.997 38.7784 399.285 39.0419C399.88 39.5961 400.802 40.0416 402.05 40.3786L406.124 41.3894C408.84 42.1242 410.911 43.2346 412.338 44.7204C413.041 45.4497 413.591 46.3115 413.957 47.2556C414.323 48.1997 414.497 49.2071 414.47 50.2193C414.47 53.0367 413.409 55.2766 411.288 56.9391C409.167 58.6015 406.243 59.4348 402.516 59.4389C399.065 59.4389 396.3 58.6807 394.222 57.1644C393.215 56.4526 392.367 55.539 391.732 54.4817C391.097 53.4244 390.69 52.2465 390.535 51.0231L397.105 49.863C397.144 50.4161 397.307 50.9532 397.582 51.4345C397.858 51.9158 398.238 52.3289 398.695 52.6429C399.651 53.3036 400.905 53.6325 402.473 53.6325Z" fill="#1D2126"/>
<path d="M435.969 58.629C434.254 59.0422 432.499 59.2718 430.735 59.314C427.703 59.314 425.339 58.4808 423.644 56.8143C421.949 55.1478 421.102 52.6703 421.102 49.382V34.694H416.492V28.6044H421.102V19.2326H428.239V28.5983H435.165V34.6879H428.239V48.0849C428.239 51.3327 429.497 52.9565 432.014 52.9565C433.056 52.9127 434.084 52.702 435.059 52.3324L435.969 58.629Z" fill="#1D2126"/>
<path d="M460.068 58.6289C459.808 57.5046 459.639 56.3611 459.563 55.2097C458.628 56.5504 457.349 57.6139 455.86 58.2879C454.122 59.0806 452.227 59.4719 450.316 59.4328C447.023 59.4328 444.385 58.5559 442.399 56.8021C440.414 55.0483 439.424 52.6744 439.428 49.6803C439.428 46.7452 440.404 44.4504 442.357 42.7961C444.31 41.1418 446.98 40.3136 450.368 40.3116H459.395V39.1546C459.395 37.2709 458.845 35.8632 457.745 34.9315C456.645 33.9998 455.104 33.5339 453.123 33.5339C449.616 33.5339 447.098 35.0005 445.569 37.9336L440.338 34.8706C442.875 30.0943 447.266 27.7062 453.51 27.7062C457.294 27.7062 460.395 28.6775 462.815 30.62C465.234 32.5626 466.452 35.7241 466.468 40.1045V52.0583C466.468 55.4461 466.646 57.6363 467.001 58.6289H460.068ZM459.459 45.2776H452.054C450.372 45.2776 449.063 45.6643 448.13 46.4377C447.667 46.8245 447.301 47.3129 447.058 47.8649C446.816 48.4168 446.704 49.0173 446.732 49.6194C446.732 51.0261 447.208 52.0969 448.16 52.8317C449.113 53.5655 450.468 53.9309 452.234 53.9309C454.353 53.9309 456.088 53.262 457.438 51.9243C458.787 50.5867 459.461 48.5994 459.459 45.9627V45.2776Z" fill="#1D2126"/>
<path d="M501.027 40.1042V58.6286H493.863V41.6449C493.863 38.7889 493.189 36.8361 491.841 35.7867C490.568 34.742 488.966 34.184 487.319 34.2126C486.363 34.1841 485.411 34.3454 484.518 34.6872C483.625 35.029 482.809 35.5445 482.116 36.2038C480.732 37.5314 480.038 39.4242 480.036 41.8823V58.6286H472.841V28.598H479.589L479.826 31.8376C480.759 30.504 482.047 29.4586 483.544 28.8203C485.216 28.0676 487.032 27.6874 488.866 27.7059C492.751 27.7059 495.749 28.7807 497.86 30.9303C499.971 33.0799 501.027 36.1379 501.027 40.1042Z" fill="#1D2126"/>
<path d="M524 58.629C522.285 59.0387 520.531 59.2653 518.769 59.3049C515.736 59.3049 513.372 58.4717 511.677 56.8051C509.982 55.1386 509.135 52.6612 509.135 49.3728V34.694H504.525V28.6044H509.135V19.2326H516.269V28.5983H523.199V34.6879H516.269V48.0849C516.269 51.3327 517.528 52.9565 520.047 52.9565C521.089 52.9127 522.117 52.702 523.092 52.3324L524 58.629Z" fill="#1D2126"/>
</svg>
