<svg width="373" height="74" viewBox="0 0 373 74" fill="none" xmlns="http://www.w3.org/2000/svg">
<g clip-path="url(#clip0_1265_3242)">
<g clip-path="url(#clip1_1265_3242)">
<g clip-path="url(#clip2_1265_3242)">
<path d="M33.3399 1.40804C35.1197 -0.371501 38.0272 -0.371636 39.8069 1.40804L69.9095 31.5116C71.6892 33.2913 73.14 36.8021 73.14 39.3132V66.7405C73.1399 69.2515 71.0799 71.3115 68.5689 71.3116H26.2081V27.6288H46.9319V31.2857H31.6944C30.6826 31.2857 29.866 32.1024 29.8659 33.1141V40.4278C29.8659 41.4396 30.6826 42.2572 31.6944 42.2572H46.9319V45.9141H31.6944C30.6826 45.9141 29.8659 46.7307 29.8659 47.7425V55.0562C29.8659 56.068 30.6826 56.8846 31.6944 56.8846H46.9319V60.5415H31.6944C30.6827 60.5415 29.8661 61.3583 29.8659 62.3699C29.8659 63.3817 30.6826 64.1984 31.6944 64.1984H48.7603C49.7719 64.1982 50.5888 63.3816 50.5888 62.3699V55.0562C50.5887 54.0446 49.7719 53.228 48.7603 53.2278H33.5228V49.5709H48.7603C49.7718 49.5707 50.5886 48.7541 50.5888 47.7425V40.4278C50.5885 39.4164 49.7718 38.5996 48.7603 38.5994H33.5228V34.9426H48.7603C49.7719 34.9424 50.5888 34.1258 50.5888 33.1141V25.8004C50.5888 24.7888 49.7719 23.9722 48.7603 23.972H24.3797C23.368 23.9722 22.5512 24.7888 22.5512 25.8004V71.3116H4.57107C2.06007 71.3115 9.27604e-05 69.2515 0 66.7405V39.3132C0 36.8021 1.45691 33.2852 3.23055 31.5116L33.3399 1.40804Z" fill="#1D2126"/>
</g>
</g>
<path d="M129.849 51.5934V58.6933H102.396V14.4656H129.849V21.6223H109.912V33.0705H127.722V39.7286H109.912V51.5934H129.849Z" fill="#1D2126"/>
<path d="M151.331 13.6642C155.377 13.6642 158.734 14.6487 161.416 16.624C164.099 18.5931 165.746 21.2311 166.358 24.5255L159.29 26.4503C158.892 24.557 157.971 23.0992 156.525 22.0705C155.074 21.0481 153.288 20.5306 151.155 20.5306C148.864 20.5306 147.053 21.0796 145.715 22.1714C144.37 23.2632 143.701 24.7211 143.701 26.5324C143.701 29.3913 145.475 31.2467 149.028 32.0924L156.248 33.8973C159.978 34.8629 162.767 36.3965 164.622 38.4981C166.478 40.5996 167.406 43.1872 167.406 46.2606C167.406 50.205 165.973 53.3921 163.114 55.8281C160.255 58.2642 156.431 59.4822 151.634 59.4822C147.318 59.4822 143.664 58.4662 140.691 56.434C137.75 54.3261 136.015 51.543 135.484 48.0908L142.553 46.2543C142.812 48.2044 143.783 49.738 145.468 50.8424C147.154 51.9469 149.299 52.4959 151.906 52.4959C154.512 52.4959 156.38 51.9658 157.807 50.9119C159.239 49.8579 159.952 48.4253 159.952 46.6077C159.952 43.7678 158.179 41.8934 154.626 40.9846L147.406 39.2365C143.695 38.3908 140.912 36.8824 139.05 34.7241C137.188 32.5657 136.254 29.9277 136.254 26.81C136.254 22.9035 137.643 19.7354 140.413 17.2993C143.184 14.8633 146.825 13.6452 151.344 13.6452L151.331 13.6642Z" fill="#1D2126"/>
<path d="M206.56 28.8737C206.56 33.2156 205.241 36.7246 202.609 39.4068C199.977 42.0889 196.43 43.4332 191.975 43.4332H182.035V58.6996H174.518V14.4656H192.032C196.525 14.4656 200.072 15.7657 202.666 18.3532C205.259 20.947 206.553 24.4496 206.553 28.8674L206.56 28.8737ZM198.69 28.697C198.69 26.4692 197.995 24.6579 196.607 23.2695C195.219 21.881 193.25 21.1868 190.706 21.1868H182.041V36.8382H190.593C193.193 36.8382 195.2 36.0998 196.601 34.6167C198.002 33.1399 198.702 31.1646 198.702 28.697H198.69Z" fill="#1D2126"/>
<path d="M213.274 14.4656H220.791V32.9569L240.285 33.0137V14.4656H247.859V58.6933H240.285V39.6718L220.791 39.615V58.6933H213.274V14.4656Z" fill="#1D2126"/>
<path d="M270.458 27.9837C275.034 27.9837 278.764 29.4542 281.642 32.3888C284.519 35.3297 285.958 39.1037 285.958 43.7171C285.958 48.3304 284.519 52.0792 281.642 55.0201C278.764 57.9611 275.034 59.4252 270.458 59.4252C265.883 59.4252 262.096 57.9547 259.218 55.0201C256.341 52.0792 254.902 48.3178 254.902 43.7171C254.902 39.1163 256.341 35.2982 259.218 32.3698C262.096 29.4415 265.845 27.9774 270.458 27.9774V27.9837ZM270.458 52.9817C272.901 52.9817 274.889 52.117 276.422 50.3941C277.95 48.6712 278.713 46.4245 278.713 43.6666C278.713 40.9087 277.95 38.6746 276.422 36.9643C274.895 35.2603 272.907 34.4083 270.458 34.4083C268.01 34.4083 265.933 35.2603 264.394 36.9643C262.854 38.6682 262.084 40.9024 262.084 43.6666C262.084 46.4308 262.854 48.6712 264.394 50.3941C265.933 52.117 267.953 52.9817 270.458 52.9817Z" fill="#1D2126"/>
<path d="M337.671 39.6718V58.6933H330.716V40.7636C330.716 38.6936 330.186 37.078 329.119 35.9105C328.053 34.7492 326.608 34.1623 324.771 34.1623C322.821 34.1623 321.262 34.7997 320.095 36.0682C318.933 37.3431 318.346 39.1228 318.346 41.4074V58.687H311.303V40.7573C311.303 38.6873 310.786 37.0717 309.751 35.9042C308.716 34.7429 307.283 34.156 305.447 34.156C303.497 34.156 301.925 34.7934 300.745 36.0619C299.565 37.3304 298.972 39.1165 298.972 41.4011V58.6806H291.815V28.8042H298.473L298.713 31.6758C300.448 29.1324 303.276 27.8576 307.201 27.8576C309.486 27.8576 311.474 28.3309 313.146 29.2776C314.825 30.2242 316.093 31.6063 316.964 33.4176C317.696 31.6821 318.902 30.3189 320.587 29.3344C322.272 28.3499 324.279 27.8576 326.608 27.8576C329.997 27.8576 332.691 28.9052 334.686 30.9942C336.68 33.0831 337.671 35.9736 337.671 39.6592V39.6718Z" fill="#1D2126"/>
<path d="M372.994 46.3868H350.097C350.337 48.6335 351.183 50.3501 352.641 51.5366C354.099 52.7231 355.954 53.31 358.201 53.31C361.849 53.31 364.405 51.789 365.862 48.7534L371.839 51.1201C370.716 53.7455 368.942 55.7965 366.531 57.2733C364.114 58.7501 361.337 59.4948 358.201 59.4948C353.783 59.4948 350.198 58.0496 347.447 55.1591C344.695 52.2687 343.319 48.4758 343.319 43.7867C343.319 39.0976 344.708 35.2794 347.478 32.3385C350.249 29.3975 353.871 27.9334 358.352 27.9334C362.833 27.9334 366.292 29.3849 368.974 32.2817C371.656 35.1784 373 38.9966 373 43.7299V46.3931L372.994 46.3868ZM350.217 41.3569H365.717C365.578 38.9335 364.846 37.0844 363.515 35.8095C362.183 34.5347 360.391 33.9036 358.144 33.9036C355.897 33.9036 354.099 34.5473 352.704 35.8411C351.303 37.1348 350.476 38.9714 350.217 41.3569Z" fill="#1D2126"/>
</g>
<defs>
<clipPath id="clip0_1265_3242">
<rect width="372.54" height="73.0498" fill="white" transform="scale(1.00123)"/>
</clipPath>
<clipPath id="clip1_1265_3242">
<rect width="73.0498" height="73.0498" fill="white" transform="scale(1.00123)"/>
</clipPath>
<clipPath id="clip2_1265_3242">
<rect width="73.0498" height="73.0498" fill="white" transform="scale(1.00123)"/>
</clipPath>
</defs>
</svg>
