<svg width="522" height="74" viewBox="0 0 522 74" fill="none" xmlns="http://www.w3.org/2000/svg">
<g clip-path="url(#clip0_1265_3495)">
<path d="M33.3148 1.33432C35.096 -0.444772 38.0032 -0.444772 39.775 1.33432L69.8598 31.4497C71.6409 33.2288 73.0899 36.7409 73.0899 39.2574V66.6997L73.0884 66.808C73.0256 69.2707 70.9928 71.2628 68.5218 71.2628H4.56812C2.05796 71.2628 7.32339e-06 69.1978 0 66.6905V39.2482C3.66457e-05 36.7317 1.45825 33.2195 3.2301 31.4405L33.3148 1.33432ZM10.9635 36.5451C9.61794 36.5451 8.52715 37.6359 8.52715 38.9814V62.7356H13.3998V38.9814C13.3998 37.6359 12.309 36.5451 10.9635 36.5451ZM20.7088 36.5451C19.3633 36.5451 18.2725 37.6359 18.2725 38.9814V62.7356H23.1451V38.9814C23.1451 37.6359 22.0544 36.5451 20.7088 36.5451ZM30.4541 36.5451C29.1086 36.5451 28.0178 37.6359 28.0178 38.9814V62.7356H32.8905V38.9814C32.8905 37.6359 31.7997 36.5451 30.4541 36.5451ZM48.2371 36.6751C46.9604 36.2501 45.5809 36.9407 45.156 38.2174L36.9952 62.7356H42.1308L49.7791 39.7562C50.204 38.4795 49.5137 37.1001 48.2371 36.6751ZM57.4694 38.2174C57.0444 36.9408 55.6649 36.2502 54.3883 36.6751C53.1116 37.1 52.421 38.4795 52.8459 39.7562L60.4946 62.7356H65.6298L57.4694 38.2174Z" fill="#1D2126"/>
<path d="M146.044 14.18V58.6418H138.639V31.0428L127.664 58.6418H120.467L109.582 31.2212V58.6418H102.326V14.18H109.582L124.066 49.809L138.639 14.18H146.044Z" fill="#1D2126"/>
<path d="M175.949 58.6418C175.711 57.7695 175.532 56.6492 175.413 55.2812C174.58 56.6096 173.381 57.6406 171.815 58.3742C170.248 59.088 168.484 59.4448 166.521 59.4448C163.111 59.4448 160.186 58.4634 157.747 56.5005C155.348 54.5179 154.149 51.296 154.149 46.8349V28.5446H161.406V45.4966C161.406 48.3319 162.07 50.2947 163.398 51.3852C164.766 52.4559 166.313 52.9912 168.038 52.9912C169.941 52.9912 171.626 52.3765 173.093 51.1473C174.561 49.8585 175.294 47.9056 175.294 45.2884V28.6041H182.462V53.1101C182.462 55.0135 182.67 56.8574 183.086 58.6418H175.949Z" fill="#1D2126"/>
<path d="M199.578 53.6455C201.065 53.6455 202.235 53.358 203.087 52.783C203.96 52.1882 204.396 51.3158 204.396 50.1659C204.396 48.5599 203.315 47.4892 201.154 46.9539L197.02 45.8535C191.33 44.307 188.485 41.3825 188.485 37.0801C188.485 34.3242 189.486 32.0738 191.488 30.329C193.491 28.5843 196.187 27.7119 199.578 27.7119C202.611 27.7119 205.149 28.4058 207.191 29.7937C209.253 31.1816 210.512 33.085 210.968 35.5039L204.515 37.0206C204.376 35.9301 203.87 35.0677 202.998 34.4332C202.145 33.7987 201.085 33.4815 199.816 33.4815C198.527 33.4815 197.486 33.8087 196.693 34.4629C195.9 35.0974 195.503 35.9301 195.503 36.9611C195.503 37.7939 195.801 38.4878 196.396 39.043C196.99 39.5981 197.912 40.0442 199.161 40.3813L203.236 41.3924C205.952 42.126 208.024 43.2363 209.452 44.7234C210.879 46.2104 211.593 48.0444 211.593 50.2253C211.593 53.0408 210.532 55.2812 208.411 56.9467C206.289 58.6121 203.365 59.4448 199.637 59.4448C196.187 59.4448 193.422 58.6914 191.34 57.1846C189.258 55.6579 188.029 53.6058 187.652 51.0283L194.225 49.8684C194.344 51.0581 194.869 51.9899 195.801 52.664C196.753 53.3183 198.012 53.6455 199.578 53.6455Z" fill="#1D2126"/>
<path d="M216.159 18.195C216.159 16.9062 216.595 15.8257 217.467 14.9533C218.359 14.0809 219.44 13.6447 220.709 13.6447C221.958 13.6447 223.019 14.0908 223.891 14.983C224.783 15.8752 225.23 16.9459 225.23 18.195C225.23 19.4441 224.783 20.5246 223.891 21.4367C223.019 22.3289 221.958 22.775 220.709 22.775C219.46 22.775 218.389 22.3289 217.497 21.4367C216.605 20.5246 216.159 19.4441 216.159 18.195ZM224.308 28.6041V58.6418H217.11V28.6041H224.308Z" fill="#1D2126"/>
<path d="M245.022 27.7119C248.433 27.7119 251.387 28.5545 253.885 30.2398C256.383 31.9053 258.058 34.1457 258.911 36.9611L252.695 39.4593C252.18 37.8533 251.228 36.5844 249.84 35.6526C248.472 34.7009 246.906 34.225 245.141 34.225C242.603 34.225 240.581 35.0776 239.074 36.7827C237.587 38.4878 236.844 40.758 236.844 43.5932C236.844 46.4681 237.587 48.7284 239.074 50.374C240.581 52.0197 242.603 52.8425 245.141 52.8425C246.946 52.8425 248.532 52.3865 249.9 51.4744C251.288 50.5624 252.239 49.3331 252.755 47.7866L258.911 50.1064C257.9 53.0011 256.135 55.2812 253.617 56.9467C251.119 58.6121 248.234 59.4448 244.963 59.4448C240.403 59.4448 236.705 57.9876 233.87 55.073C231.034 52.1386 229.617 48.312 229.617 43.5932C229.617 38.8348 231.025 34.9983 233.84 32.0837C236.675 29.1692 240.403 27.7119 245.022 27.7119Z" fill="#1D2126"/>
<path d="M305.277 48.2922H288.355L284.697 58.6418H276.905L292.965 14.18H300.757L316.846 58.6418H308.876L305.277 48.2922ZM303.077 41.898L296.861 24.1133L290.586 41.898H303.077Z" fill="#1D2126"/>
<path d="M330.959 53.6455C332.446 53.6455 333.616 53.358 334.468 52.783C335.341 52.1882 335.777 51.3158 335.777 50.1659C335.777 48.5599 334.696 47.4892 332.535 46.9539L328.401 45.8535C322.711 44.307 319.866 41.3825 319.866 37.0801C319.866 34.3242 320.867 32.0738 322.869 30.329C324.872 28.5843 327.568 27.7119 330.959 27.7119C333.992 27.7119 336.53 28.4058 338.572 29.7937C340.634 31.1816 341.893 33.085 342.349 35.5039L335.896 37.0206C335.757 35.9301 335.251 35.0677 334.379 34.4332C333.526 33.7987 332.466 33.4815 331.197 33.4815C329.908 33.4815 328.867 33.8087 328.074 34.4629C327.281 35.0974 326.884 35.9301 326.884 36.9611C326.884 37.7939 327.182 38.4878 327.777 39.043C328.371 39.5981 329.293 40.0442 330.542 40.3813L334.617 41.3924C337.333 42.126 339.405 43.2363 340.833 44.7234C342.26 46.2104 342.974 48.0444 342.974 50.2253C342.974 53.0408 341.913 55.2812 339.792 56.9467C337.67 58.6121 334.746 59.4448 331.018 59.4448C327.568 59.4448 324.803 58.6914 322.721 57.1846C320.639 55.6579 319.41 53.6058 319.033 51.0283L325.606 49.8684C325.725 51.0581 326.25 51.9899 327.182 52.664C328.133 53.3183 329.393 53.6455 330.959 53.6455Z" fill="#1D2126"/>
<path d="M358.246 53.6455C359.733 53.6455 360.903 53.358 361.756 52.783C362.628 52.1882 363.064 51.3158 363.064 50.1659C363.064 48.5599 361.984 47.4892 359.822 46.9539L355.689 45.8535C349.998 44.307 347.153 41.3825 347.153 37.0801C347.153 34.3242 348.154 32.0738 350.157 30.329C352.159 28.5843 354.856 27.7119 358.246 27.7119C361.28 27.7119 363.818 28.4058 365.86 29.7937C367.922 31.1816 369.181 33.085 369.637 35.5039L363.183 37.0206C363.044 35.9301 362.539 35.0677 361.666 34.4332C360.814 33.7987 359.753 33.4815 358.484 33.4815C357.195 33.4815 356.154 33.8087 355.361 34.4629C354.568 35.0974 354.172 35.9301 354.172 36.9611C354.172 37.7939 354.469 38.4878 355.064 39.043C355.659 39.5981 356.581 40.0442 357.83 40.3813L361.904 41.3924C364.621 42.126 366.692 43.2363 368.12 44.7234C369.548 46.2104 370.261 48.0444 370.261 50.2253C370.261 53.0408 369.201 55.2812 367.079 56.9467C364.958 58.6121 362.033 59.4448 358.306 59.4448C354.856 59.4448 352.09 58.6914 350.008 57.1846C347.926 55.6579 346.697 53.6058 346.32 51.0283L352.893 49.8684C353.012 51.0581 353.537 51.9899 354.469 52.664C355.421 53.3183 356.68 53.6455 358.246 53.6455Z" fill="#1D2126"/>
<path d="M374.827 18.195C374.827 16.9062 375.263 15.8257 376.136 14.9533C377.028 14.0809 378.108 13.6447 379.377 13.6447C380.626 13.6447 381.687 14.0908 382.56 14.983C383.452 15.8752 383.898 16.9459 383.898 18.195C383.898 19.4441 383.452 20.5246 382.56 21.4367C381.687 22.3289 380.626 22.775 379.377 22.775C378.128 22.775 377.058 22.3289 376.165 21.4367C375.273 20.5246 374.827 19.4441 374.827 18.195ZM382.976 28.6041V58.6418H375.779V28.6041H382.976Z" fill="#1D2126"/>
<path d="M400.389 53.6455C401.876 53.6455 403.046 53.358 403.899 52.783C404.771 52.1882 405.207 51.3158 405.207 50.1659C405.207 48.5599 404.127 47.4892 401.966 46.9539L397.832 45.8535C392.141 44.307 389.296 41.3825 389.296 37.0801C389.296 34.3242 390.298 32.0738 392.3 30.329C394.303 28.5843 396.999 27.7119 400.389 27.7119C403.423 27.7119 405.961 28.4058 408.003 29.7937C410.065 31.1816 411.324 33.085 411.78 35.5039L405.326 37.0206C405.188 35.9301 404.682 35.0677 403.81 34.4332C402.957 33.7987 401.896 33.4815 400.627 33.4815C399.339 33.4815 398.298 33.8087 397.505 34.4629C396.712 35.0974 396.315 35.9301 396.315 36.9611C396.315 37.7939 396.612 38.4878 397.207 39.043C397.802 39.5981 398.724 40.0442 399.973 40.3813L404.048 41.3924C406.764 42.126 408.836 43.2363 410.263 44.7234C411.691 46.2104 412.405 48.0444 412.405 50.2253C412.405 53.0408 411.344 55.2812 409.222 56.9467C407.101 58.6121 404.176 59.4448 400.449 59.4448C396.999 59.4448 394.233 58.6914 392.151 57.1846C390.07 55.6579 388.84 53.6058 388.464 51.0283L395.036 49.8684C395.155 51.0581 395.681 51.9899 396.612 52.664C397.564 53.3183 398.823 53.6455 400.389 53.6455Z" fill="#1D2126"/>
<path d="M433.893 58.6418C431.831 59.0979 430.086 59.3259 428.658 59.3259C425.625 59.3259 423.255 58.4932 421.55 56.8277C419.865 55.1622 419.022 52.6839 419.022 49.3926V34.7009H414.413V28.6041H419.022V19.2359H426.16V28.6041H433.09V34.7009H426.16V48.1138C426.16 51.3654 427.419 52.9912 429.937 52.9912C430.75 52.9912 431.761 52.783 432.971 52.3666L433.893 58.6418Z" fill="#1D2126"/>
<path d="M458.027 58.6418C457.79 57.6703 457.621 56.5303 457.522 55.2217C456.649 56.5105 455.41 57.5415 453.804 58.3147C452.218 59.0681 450.374 59.4448 448.273 59.4448C444.981 59.4448 442.344 58.5725 440.362 56.8277C438.379 55.0631 437.388 52.6839 437.388 49.69C437.388 46.7556 438.359 44.4656 440.302 42.82C442.265 41.1545 444.942 40.3218 448.332 40.3218H457.343V39.1619C457.343 37.2784 456.788 35.8707 455.678 34.9388C454.587 34.0069 453.051 33.541 451.068 33.541C447.559 33.541 445.041 35.0082 443.514 37.9426L438.28 34.8793C440.818 30.101 445.209 27.7119 451.455 27.7119C455.242 27.7119 458.345 28.6834 460.764 30.6264C463.202 32.5893 464.422 35.7517 464.422 40.1136V52.0692C464.422 55.4596 464.6 57.6505 464.957 58.6418H458.027ZM457.403 45.2884H449.998C448.312 45.2884 447.004 45.6751 446.072 46.4483C445.14 47.2216 444.674 48.2823 444.674 49.6305C444.674 51.0382 445.15 52.1089 446.102 52.8425C447.053 53.5761 448.411 53.9429 450.176 53.9429C452.297 53.9429 454.032 53.2787 455.381 51.9503C456.729 50.602 457.403 48.6094 457.403 45.9725V45.2884Z" fill="#1D2126"/>
<path d="M499.025 40.1136V58.6418H491.858V41.6601C491.858 38.805 491.184 36.8521 489.835 35.8013C488.547 34.7504 487.04 34.225 485.315 34.225C483.233 34.225 481.498 34.8892 480.11 36.2176C478.722 37.546 478.028 39.4395 478.028 41.898V58.6418H470.831V28.6041H477.582L477.82 31.8458C478.673 30.5769 479.912 29.5756 481.538 28.842C483.164 28.0886 484.938 27.7119 486.861 27.7119C490.747 27.7119 493.741 28.7925 495.843 30.9536C497.964 33.0949 499.025 36.1482 499.025 40.1136Z" fill="#1D2126"/>
<path d="M522 58.6418C519.938 59.0979 518.193 59.3259 516.766 59.3259C513.732 59.3259 511.363 58.4932 509.658 56.8277C507.973 55.1622 507.13 52.6839 507.13 49.3926V34.7009H502.52V28.6041H507.13V19.2359H514.268V28.6041H521.197V34.7009H514.268V48.1138C514.268 51.3654 515.527 52.9912 518.045 52.9912C518.858 52.9912 519.869 52.783 521.078 52.3666L522 58.6418Z" fill="#1D2126"/>
</g>
<defs>
<clipPath id="clip0_1265_3495">
<rect width="521.714" height="73.0498" fill="white" transform="scale(1.00055)"/>
</clipPath>
</defs>
</svg>
