<svg width="216" height="49" viewBox="0 0 216 49" fill="none" xmlns="http://www.w3.org/2000/svg">
<path d="M17.8982 0.623614C17.0712 -0.207871 15.7178 -0.207871 14.8943 0.623614L1.50375 14.0858C0.676689 14.9172 0 16.5586 0 17.7321V29.9416C0 31.115 0.955957 32.0797 2.12674 32.0797H30.6658C31.833 32.0797 32.7926 31.1186 32.7926 29.9416V17.7321C32.7926 16.5586 32.1159 14.9172 31.2888 14.0858L17.8982 0.623614Z" fill="#18BCF2"/>
<path d="M31.5419 37.545C31.5986 37.545 31.6547 37.5482 31.71 37.5538C32.5365 37.638 33.1812 38.3357 33.1813 39.1844V46.9732C33.1812 47.8786 32.4473 48.6126 31.5419 48.6126H29.4921C28.5868 48.6125 27.8529 47.8785 27.8527 46.9732V42.8736H5.71758V46.9732C5.71743 47.8786 4.9836 48.6126 4.07816 48.6126H2.02839C1.12304 48.6125 0.389125 47.8785 0.388972 46.9732V39.1844C0.389083 38.2791 1.12302 37.5451 2.02839 37.545H31.5419Z" fill="#09202E"/>
<path d="M53.3934 5.47272C54.8959 5.47272 56.288 5.74316 57.5697 6.28759C58.8515 6.82846 59.9374 7.57927 60.8275 8.53647C61.7176 9.49367 62.4118 10.6395 62.9103 11.981C63.4052 13.3225 63.6544 14.7707 63.6544 16.3293C63.6722 17.8701 63.4301 19.3148 62.9317 20.6705C62.4296 22.0262 61.7282 23.1827 60.8275 24.1435C59.9267 25.1042 58.8301 25.8586 57.5412 26.403C56.2524 26.951 54.8602 27.2143 53.3649 27.1965C51.3889 27.225 49.6122 26.7695 48.0385 25.8337C46.4648 24.8978 45.2508 23.599 44.3963 21.9373C43.5418 20.2755 43.1288 18.4145 43.1572 16.3578C43.1394 14.817 43.3815 13.3723 43.88 12.0166C44.382 10.6608 45.0799 9.50435 45.9771 8.53647C46.8743 7.57215 47.9638 6.81422 49.2491 6.26979C50.5344 5.72536 51.9158 5.45849 53.3934 5.47628V5.47272ZM53.4183 23.0368C55.1914 23.0368 56.5942 22.4354 57.6302 21.2363C58.6663 20.0335 59.1826 18.4003 59.1826 16.3293C59.1826 14.2583 58.6663 12.6001 57.6374 11.401C56.6084 10.2053 55.2021 9.60754 53.4183 9.60754C51.6345 9.60754 50.2282 10.2053 49.1992 11.401C48.1703 12.5966 47.654 14.2405 47.654 16.3293C47.654 18.418 48.1703 20.0585 49.1992 21.2505C50.2282 22.4426 51.6345 23.0404 53.4183 23.0404V23.0368Z" fill="#18BCF2"/>
<path d="M82.3287 12.7923C82.3287 14.8988 81.6914 16.5926 80.4203 17.8772C79.1492 19.1617 77.4189 19.8058 75.2257 19.8058H71.0636V26.8478H66.8161V5.84635H75.2827C77.483 5.84635 79.2062 6.4655 80.4559 7.70381C81.7056 8.94212 82.3287 10.6395 82.3287 12.7887V12.7923ZM77.8426 12.7104C77.8426 11.8208 77.5542 11.0843 76.9739 10.5042C76.3935 9.92423 75.5568 9.63601 74.4602 9.63601H71.0636V16.1087H74.4602C75.5639 16.1087 76.4042 15.7955 76.981 15.1693C77.5578 14.543 77.8426 13.7246 77.8426 12.714V12.7104Z" fill="#18BCF2"/>
<path d="M98.5498 26.8478H85.323V5.84635H98.5498V9.88153H89.567V14.3615H97.5458V18.1191H89.567V22.8518H98.5498V26.8478Z" fill="#18BCF2"/>
<path d="M120.606 5.84991V26.8514H116.387L107.184 12.6286V26.8514H102.965V5.84991H107.184L116.387 20.1012V5.84991H120.606Z" fill="#18BCF2"/>
<path d="M132.637 5.84991H136.885V14.3402L145.212 14.3686V5.84991H149.488V26.8514H145.212V18.1547L136.885 18.0978V26.8514H132.637V5.84991Z" fill="#18BCF2"/>
<path d="M162.854 5.47272C164.357 5.47272 165.749 5.74316 167.03 6.28759C168.312 6.82846 169.398 7.57927 170.288 8.53647C171.178 9.49367 171.873 10.6395 172.371 11.981C172.866 13.3225 173.115 14.7707 173.115 16.3293C173.133 17.8701 172.891 19.3148 172.392 20.6705C171.89 22.0262 171.189 23.1827 170.288 24.1435C169.387 25.1042 168.291 25.8586 167.002 26.403C165.713 26.951 164.321 27.2143 162.826 27.1965C160.85 27.225 159.073 26.7695 157.499 25.8337C155.926 24.8978 154.711 23.599 153.857 21.9373C153.002 20.2755 152.589 18.4145 152.618 16.3578C152.6 14.817 152.842 13.3723 153.341 12.0166C153.843 10.6608 154.541 9.50435 155.438 8.53647C156.335 7.57215 157.425 6.81422 158.71 6.26979C159.995 5.72536 161.377 5.45849 162.854 5.47628V5.47272ZM162.879 23.0368C164.652 23.0368 166.055 22.4354 167.091 21.2363C168.127 20.0335 168.643 18.4003 168.643 16.3293C168.643 14.2583 168.127 12.6001 167.098 11.401C166.069 10.2053 164.663 9.60754 162.879 9.60754C161.095 9.60754 159.689 10.2053 158.66 11.401C157.631 12.5966 157.115 14.2405 157.115 16.3293C157.115 18.418 157.631 20.0585 158.66 21.2505C159.689 22.4426 161.095 23.0404 162.879 23.0404V23.0368Z" fill="#18BCF2"/>
<path d="M197.482 5.84991V26.8514H193.292V15.3685L188.795 26.8514H184.772L180.329 15.4539V26.8514H176.277V5.84991H180.329L186.791 21.8946L193.292 5.84991H197.482Z" fill="#18BCF2"/>
<path d="M215.167 26.8478H201.94V5.84635H215.167V9.88153H206.184V14.3615H214.163V18.1191H206.184V22.8518H215.167V26.8478Z" fill="#18BCF2"/>
<path d="M46.5105 35.1887V39.9077H52.5538V42.063H46.5105V48.6425H44.1124V32.9198H53.6942V35.1887H46.5105Z" fill="#09202E"/>
<path d="M62.8426 32.6641C63.9333 32.6499 64.9565 32.8487 65.9051 33.2571C66.8537 33.6654 67.6638 34.23 68.3317 34.9508C68.9961 35.6716 69.5183 36.538 69.8949 37.5428C70.2715 38.5513 70.4527 39.6271 70.4385 40.774C70.4527 41.928 70.2715 43.0146 69.8949 44.0265C69.5183 45.0421 68.9961 45.9049 68.3317 46.6257C67.6673 47.3429 66.8573 47.9075 65.9051 48.3159C64.953 48.7242 63.9333 48.923 62.8426 48.9088C61.7519 48.923 60.7323 48.7242 59.7837 48.3159C58.8351 47.9075 58.0286 47.3429 57.3642 46.6221C56.6999 45.9013 56.1776 45.0349 55.8046 44.0301C55.4315 43.0252 55.2503 41.9458 55.2646 40.7989C55.2503 39.652 55.4315 38.5726 55.8046 37.5641C56.1776 36.5557 56.6963 35.6893 57.3642 34.965C58.0286 34.2442 58.8351 33.6761 59.7837 33.2642C60.7323 32.8523 61.7519 32.6534 62.8426 32.6676V32.6641ZM59.1833 44.9604C60.1105 46.0114 61.3363 46.5405 62.864 46.5405C64.3917 46.5405 65.6174 46.015 66.5411 44.9604C67.4648 43.9094 67.9267 42.5139 67.9267 40.774C67.9267 39.0342 67.4648 37.6281 66.5411 36.577C65.6174 35.526 64.3917 34.997 62.864 34.997C61.3363 34.997 60.107 35.526 59.1833 36.5806C58.256 37.6352 57.7941 39.0342 57.7941 40.774C57.7941 42.5139 58.256 43.9094 59.1833 44.9604Z" fill="#09202E"/>
<path d="M75.3627 32.9162V42.9684C75.3698 44.165 75.7215 45.0705 76.4178 45.6812C77.1142 46.2955 78.0308 46.6008 79.1641 46.6008C80.2975 46.6008 81.1643 46.2777 81.8891 45.635C82.6139 44.9923 82.9763 44.1011 82.9763 42.9684V32.9162H85.3744V43.0643C85.3744 43.9875 85.2074 44.8219 84.877 45.5711C84.5466 46.3203 84.0954 46.9382 83.5305 47.4175C82.9621 47.9004 82.3084 48.2697 81.5587 48.5324C80.8091 48.7952 80.0133 48.923 79.1606 48.923C78.3079 48.923 77.5441 48.7952 76.8051 48.5431C76.0661 48.291 75.4053 47.9253 74.8297 47.4495C74.2506 46.9737 73.7959 46.3594 73.4619 45.6031C73.1279 44.8468 72.961 43.9981 72.961 43.0643V32.9162H75.3627Z" fill="#09202E"/>
<path d="M101.408 32.9162V48.639H99.01L91.2543 36.7901V48.639H88.8561V32.9162H91.2543L99.01 44.7864V32.9162H101.408Z" fill="#09202E"/>
<path d="M118.167 40.7953C118.174 41.9209 117.978 42.9791 117.58 43.9626C117.182 44.9497 116.632 45.7877 115.932 46.4766C115.232 47.1654 114.39 47.7051 113.406 48.0922C112.422 48.4792 111.374 48.6638 110.251 48.6425H105.011V32.9198H110.251C111.729 32.8984 113.079 33.2251 114.294 33.9033C115.509 34.578 116.461 35.5225 117.151 36.7333C117.84 37.9441 118.177 39.3005 118.167 40.7989V40.7953ZM115.619 40.7953C115.619 39.1336 115.125 37.7843 114.134 36.7475C113.143 35.7107 111.843 35.1887 110.23 35.1887H107.43V46.4126H110.23C111.857 46.4126 113.161 45.8978 114.145 44.8645C115.129 43.8348 115.619 42.4749 115.619 40.7953Z" fill="#09202E"/>
<path d="M128.697 44.861H122.419L121.055 48.6425H118.593L124.277 32.9198H126.857L132.573 48.6425H130.036L128.694 44.861H128.697ZM128.001 42.8228L125.581 35.9699L123.141 42.8228H128.001Z" fill="#09202E"/>
<path d="M143.342 35.1887H138.776V48.6425H136.357V35.1887H131.792V32.9198H143.338V35.1887H143.342Z" fill="#09202E"/>
<path d="M145.509 48.639V32.9162H147.928V48.639H145.509Z" fill="#09202E"/>
<path d="M158.164 32.6641C159.255 32.6499 160.278 32.8487 161.226 33.2571C162.179 33.6654 162.985 34.23 163.653 34.9508C164.317 35.6716 164.84 36.538 165.216 37.5428C165.593 38.5513 165.774 39.6271 165.76 40.774C165.774 41.928 165.593 43.0146 165.216 44.0265C164.84 45.0421 164.317 45.9049 163.653 46.6257C162.989 47.3429 162.179 47.9075 161.226 48.3159C160.274 48.7242 159.255 48.923 158.164 48.9088C157.073 48.923 156.053 48.7242 155.105 48.3159C154.156 47.9075 153.35 47.3429 152.685 46.6221C152.021 45.9013 151.499 45.0349 151.126 44.0301C150.753 43.0252 150.572 41.9458 150.586 40.7989C150.572 39.652 150.753 38.5726 151.126 37.5641C151.499 36.5557 152.018 35.6893 152.685 34.965C153.35 34.2442 154.156 33.6761 155.105 33.2642C156.053 32.8523 157.073 32.6534 158.164 32.6676V32.6641ZM154.504 44.9604C155.432 46.0114 156.657 46.5405 158.185 46.5405C159.713 46.5405 160.939 46.015 161.862 44.9604C162.786 43.9094 163.248 42.5139 163.248 40.774C163.248 39.0342 162.786 37.6281 161.862 36.577C160.939 35.526 159.713 34.997 158.185 34.997C156.657 34.997 155.428 35.526 154.504 36.5806C153.577 37.6352 153.115 39.0342 153.115 40.774C153.115 42.5139 153.577 43.9094 154.504 44.9604Z" fill="#09202E"/>
<path d="M180.987 32.9162V48.639H178.589L170.833 36.7901V48.639H168.435V32.9162H170.833L178.589 44.7864V32.9162H180.987Z" fill="#09202E"/>
</svg>
